# xmcd CD database file
#
# Track frame offsets:
#	150
#	35447
#	59320
#	94337
#	120992
#	142437
#	156382
#	172622
#	205307
#	235875
#	260950
#	281077
#
# Disc length: 4154 seconds
#
# Revision: 0
# Processed by: cddbd v1.5.2PL0 Copyright (c) Steve Scherf et al.
# Submitted via: CDex 1.70beta2
#
DISCID=b510380c
DTITLE=Sidney Catlett 他 - ALL THAT JAZZ DRUMS
DYEAR=1995
DGENRE=Jazz
TTITLE0=Sid Flips His Lid/Hank Jones Trio featuring Sidney Catlett
TTITLE1=Louise/The Lester Young-Teddy Wilson Quartet featuring Jo Jones
TTITLE2=Gene's Blues
TTITLE3=Satin Doll
TTITLE4=Charlie O
TTITLE5=The Squirrel
TTITLE6=These Things Called Changes/Bill Evans Trio featuring Shelly Manne
TTITLE7=How About You/Stan Getz Quartet featuring Stan Levey
TTITLE8=Night In Tunisia
TTITLE9=Hagnes
TTITLE10=Anthoropology
TTITLE11=My Heart Stood Still/Lee Konitz featuring Elvin Jones
EXTD=YEAR: 1995
EXTT0=
EXTT1=
EXTT2=
EXTT3=
EXTT4=
EXTT5=
EXTT6=
EXTT7=
EXTT8=
EXTT9=
EXTT10=
EXTT11=
PLAYORDER=
